<?xml version="1.0" encoding="UTF-8"?>
<!-- Generator: Adobe Illustrator 19.1.0, SVG Export Plug-In . SVG Version: 6.00 Build 0)  -->
<svg version="1.1" id="Layer_1" xmlns="http://www.w3.org/2000/svg" xmlns:xlink="http://www.w3.org/1999/xlink" x="0px" y="0px" viewBox="0 0 262.1 74.9" style="enable-background:new 0 0 262.1 74.9;" xml:space="preserve">
<style type="text/css">
	.st0{fill:#231F20;}
	.st1{fill:#A03234;}
	.st2{fill:none;stroke:#000000;stroke-width:0.5;stroke-miterlimit:10;}
</style>
<g>
	<path class="st0" d="M106.9,34.4c-0.8-0.2-1.4-0.4-1.9-0.5c-0.5-0.1-0.9-0.2-1.4-0.2c-1.2,0-2.2,0.3-2.9,0.9   c-0.8,0.6-1.1,1.4-1.1,2.4c0,1,0.4,1.8,1.2,2.4c0.8,0.6,1.8,0.9,3.1,0.9c0.5,0,1-0.1,1.5-0.2c0.5-0.1,1.1-0.3,1.8-0.6l-0.8,5.3   c-0.6,0.1-1.1,0.2-1.6,0.2c-0.5,0-0.9,0.1-1.4,0.1c-3,0-5.4-0.8-7.3-2.3c-1.9-1.5-2.8-3.5-2.8-6c0-1.2,0.2-2.3,0.7-3.3   c0.5-1,1.2-1.8,2.1-2.5c1-0.8,2-1.4,3.2-1.8c1.2-0.4,2.4-0.6,3.7-0.6c0.6,0,1.1,0,1.6,0.1c0.5,0.1,1,0.2,1.6,0.3L106.9,34.4z"/>
	<path class="st0" d="M125,28.9c1.4,0,2.7,0.2,3.8,0.6c1.2,0.4,2.3,1,3.3,1.9c0.9,0.6,1.6,1.4,2.1,2.5c0.5,1,0.7,2.1,0.7,3.3   c0,1.2-0.2,2.3-0.7,3.3c-0.5,1-1.2,1.8-2.1,2.4c-1,0.9-2.1,1.6-3.3,2c-1.2,0.4-2.5,0.6-3.8,0.6c-1.3,0-2.6-0.2-3.8-0.6   c-1.2-0.4-2.3-1-3.3-1.9c-0.9-0.6-1.6-1.4-2.1-2.4c-0.5-1-0.7-2.1-0.7-3.3c0-1.2,0.2-2.3,0.7-3.3c0.5-1,1.2-1.9,2.2-2.7   c0.9-0.7,2-1.3,3.2-1.7C122.4,29,123.7,28.9,125,28.9z M125,40.4c1.1,0,1.9-0.3,2.6-0.9c0.6-0.6,0.9-1.4,0.9-2.4   c0-1-0.3-1.8-0.9-2.4c-0.6-0.6-1.5-0.9-2.6-0.9c-1.1,0-1.9,0.3-2.5,0.9c-0.6,0.6-0.9,1.4-0.9,2.4c0,1,0.3,1.8,0.9,2.4   C123.1,40.1,123.9,40.4,125,40.4z"/>
	<polygon class="st0" points="143.6,45.2 143.6,29.2 149.6,29.2 154.5,36.4 154.5,29.3 160.7,28.9 160.7,45 154.7,45 149.7,37.6    149.7,44.9  "/>
	<path class="st0" d="M184,34.4c-0.8-0.2-1.4-0.4-1.9-0.5c-0.5-0.1-0.9-0.2-1.4-0.2c-1.2,0-2.2,0.3-2.9,0.9   c-0.8,0.6-1.1,1.4-1.1,2.4c0,1,0.4,1.8,1.2,2.4c0.8,0.6,1.8,0.9,3.1,0.9c0.5,0,1-0.1,1.5-0.2c0.5-0.1,1.1-0.3,1.8-0.6l-0.8,5.3   c-0.6,0.1-1.1,0.2-1.6,0.2c-0.5,0-0.9,0.1-1.4,0.1c-3,0-5.4-0.8-7.3-2.3c-1.9-1.5-2.8-3.5-2.8-6c0-1.2,0.2-2.3,0.7-3.3   c0.5-1,1.2-1.8,2.1-2.5c1-0.8,2-1.4,3.2-1.8c1.2-0.4,2.4-0.6,3.7-0.6c0.6,0,1.1,0,1.6,0.1c0.5,0.1,1,0.2,1.6,0.3L184,34.4z"/>
	<path class="st0" d="M202.6,28.9c1.4,0,2.7,0.2,3.8,0.6c1.2,0.4,2.3,1,3.3,1.9c0.9,0.6,1.6,1.4,2.1,2.5c0.5,1,0.7,2.1,0.7,3.3   c0,1.2-0.2,2.3-0.7,3.3c-0.5,1-1.2,1.8-2.1,2.4c-1,0.9-2.1,1.6-3.3,2c-1.2,0.4-2.5,0.6-3.8,0.6c-1.4,0-2.6-0.2-3.8-0.6   c-1.2-0.4-2.3-1-3.3-1.9c-0.9-0.6-1.6-1.4-2.1-2.4c-0.5-1-0.7-2.1-0.7-3.3c0-1.2,0.2-2.3,0.7-3.3c0.5-1,1.2-1.9,2.2-2.7   c0.9-0.7,2-1.3,3.2-1.7C200,29,201.3,28.9,202.6,28.9z M202.6,40.4c1.1,0,1.9-0.3,2.6-0.9c0.6-0.6,0.9-1.4,0.9-2.4   c0-1-0.3-1.8-0.9-2.4c-0.6-0.6-1.5-0.9-2.6-0.9c-1.1,0-1.9,0.3-2.5,0.9c-0.6,0.6-0.9,1.4-0.9,2.4c0,1,0.3,1.8,0.9,2.4   C200.7,40.1,201.6,40.4,202.6,40.4z"/>
	<path class="st0" d="M219.8,45.3V29.2h7.5c2.3,0,4.1,0.4,5.3,1.2c1.2,0.8,1.9,2,1.9,3.5c0,0.9-0.2,1.8-0.8,2.5   c-0.5,0.7-1.2,1.2-2.1,1.6l3.4,6.6l-6.5,0.7l-2.4-6.7v6.3L219.8,45.3z M226.1,33.8v3.3h-0.2c0.7,0,1.3-0.1,1.7-0.4   c0.4-0.3,0.6-0.7,0.6-1.2c0-0.5-0.2-0.9-0.6-1.2c-0.4-0.3-0.9-0.4-1.7-0.4H226.1z"/>
	<path class="st0" d="M242.6,45V29.2h7.2c0.9,0,1.8,0.1,2.7,0.3c0.9,0.2,1.7,0.5,2.5,1c1.3,0.6,2.2,1.5,3,2.7   c0.7,1.2,1.1,2.5,1.1,3.9c0,1.4-0.4,2.7-1.1,3.9c-0.7,1.2-1.7,2.1-3,2.7c-0.8,0.5-1.6,0.8-2.5,1c-0.9,0.2-1.8,0.3-2.7,0.3H242.6z    M249,34.1v5.9h-0.1c1.2,0,2.1-0.3,2.8-0.8c0.7-0.5,1-1.2,1-2.2c0-0.9-0.3-1.7-1-2.2c-0.7-0.5-1.6-0.8-2.8-0.8H249z"/>
</g>
<g>
	<g>
		<g>
			<path class="st1" d="M49.8,19.5H38.4c-1.4-1.8-3-3.2-4.8-4.2c-1.9-0.9-4-1.4-6.3-1.4c-1.9,0-3.7,0.4-5.4,1.1     c-1.7,0.7-3.2,1.8-4.6,3.2c-1.4,1.5-2.5,3.1-3.3,5c-0.8,1.9-1.1,3.9-1.1,5.9c0,4.4,1.4,8.1,4.2,11.1c2.8,3,6.2,4.5,10.3,4.5     c2.3,0,4.4-0.4,6.3-1.3c1.9-0.9,3.4-2.1,4.5-3.8h11.4c-2.2,4.9-5.2,8.6-8.9,11c-3.7,2.5-8.1,3.7-13.2,3.7c-3.6,0-6.9-0.7-9.9-2.1     c-3-1.4-5.7-3.4-8.1-6.2c-2-2.3-3.6-4.8-4.6-7.7c-1-2.9-1.6-6-1.6-9.3c0-3.3,0.6-6.5,1.9-9.5c1.3-3,3.1-5.7,5.5-8.2     c2.3-2.3,4.9-4,7.7-5.2c2.8-1.2,5.8-1.8,9.1-1.8c5.2,0,9.6,1.3,13.3,3.8C44.4,10.5,47.4,14.4,49.8,19.5z"/>
		</g>
		<g>
			<path class="st1" d="M39.6,35.2h11.4c1.3-1.8,3-3.2,4.8-4.2c1.9-0.9,4-1.4,6.3-1.4c1.9,0,3.7,0.4,5.4,1.1     c1.7,0.7,3.2,1.8,4.6,3.2c1.4,1.5,2.5,3.1,3.3,5c0.8,1.9,1.2,3.9,1.2,5.9c0,4.4-1.4,8.1-4.2,11.1c-2.8,3-6.2,4.5-10.3,4.5     c-2.3,0-4.4-0.4-6.3-1.3c-1.9-0.9-3.4-2.1-4.5-3.8H39.9c2.2,4.9,5.2,8.6,8.9,11c3.7,2.5,8.1,3.7,13.2,3.7c3.6,0,6.9-0.7,9.9-2.1     c3-1.4,5.7-3.4,8.1-6.2c2-2.3,3.6-4.8,4.6-7.7c1-2.9,1.6-6,1.6-9.3c0-3.3-0.6-6.5-1.9-9.5c-1.3-3-3.1-5.7-5.5-8.2     c-2.3-2.3-4.9-4-7.7-5.2c-2.8-1.2-5.8-1.8-9.1-1.8c-5.2,0-9.6,1.2-13.3,3.8C44.9,26.3,41.9,30.1,39.6,35.2z"/>
		</g>
	</g>
	<g>
		<g>
			<g>
				<path d="M88,69.1C88,69.2,88,69.2,88,69.1C88,69.2,88,69.2,88,69.1c-0.1,0.1-0.1,0.1-0.2,0.1c0,0-0.1,0-0.2,0      c-0.1,0-0.1,0-0.2,0c0,0-0.1,0-0.1,0c0,0,0,0-0.1,0c0,0,0,0,0-0.1l-0.5-1.2c-0.1-0.1-0.1-0.3-0.2-0.4c-0.1-0.1-0.1-0.2-0.2-0.3      s-0.2-0.1-0.3-0.2C86,67,85.9,67,85.8,67h-0.4v2.2c0,0,0,0,0,0.1c0,0,0,0-0.1,0c0,0-0.1,0-0.1,0c0,0-0.1,0-0.2,0      c-0.1,0-0.1,0-0.2,0c0,0-0.1,0-0.1,0c0,0,0,0-0.1,0c0,0,0,0,0-0.1v-4.7c0-0.1,0-0.2,0.1-0.2c0.1,0,0.1-0.1,0.2-0.1H86      c0.1,0,0.2,0,0.3,0c0.1,0,0.2,0,0.2,0c0.2,0,0.4,0.1,0.5,0.2c0.2,0.1,0.3,0.2,0.4,0.3c0.1,0.1,0.2,0.2,0.2,0.4      c0.1,0.1,0.1,0.3,0.1,0.5c0,0.2,0,0.3-0.1,0.5c0,0.1-0.1,0.3-0.2,0.4c-0.1,0.1-0.2,0.2-0.3,0.3c-0.1,0.1-0.3,0.1-0.4,0.2      c0.1,0,0.2,0.1,0.2,0.1c0.1,0.1,0.1,0.1,0.2,0.2c0.1,0.1,0.1,0.2,0.2,0.3s0.1,0.2,0.2,0.3l0.5,1.1C88,69,88,69,88,69.1      C88,69.1,88,69.1,88,69.1z M87,65.6c0-0.2,0-0.4-0.1-0.5c-0.1-0.1-0.2-0.2-0.4-0.3c-0.1,0-0.1,0-0.2,0c-0.1,0-0.2,0-0.3,0h-0.6      v1.7H86c0.2,0,0.3,0,0.5-0.1c0.1,0,0.2-0.1,0.3-0.2c0.1-0.1,0.1-0.2,0.2-0.3C87,65.8,87,65.7,87,65.6z"/>
			</g>
		</g>
		<circle class="st2" cx="86.1" cy="66.6" r="3.3"/>
	</g>
</g>
</svg>