<?xml version="1.0" encoding="UTF-8"?>
<svg width="1565" height="300" version="1.0" viewBox="0 0 1565 300" xmlns="http://www.w3.org/2000/svg">
 <path transform="scale(1.33)" d="m1152.1 9.8246q-3.8283 0-7.1306 1.3707-3.3023 1.3707-6.0493 4.1122-2.7471 2.7415-4.1499 6.0954-1.4027 3.3248-1.4027 7.1162 0 3.7623 1.4027 7.087 1.4028 3.2956 4.1499 6.0371 2.747 2.7415 6.0493 4.1414 3.3023 1.3707 7.1306 1.3707 3.8575 0 7.1598-1.3707 3.3315-1.3999 6.0786-4.1414 2.7178-2.7123 4.0621-6.0079 1.3735-3.2956 1.3735-7.1162 0-3.8789-1.3735-7.1745-1.3735-3.3248-4.0621-6.0371-2.7471-2.7415-6.0786-4.1122-3.3023-1.3707-7.1598-1.3707zm0-3.004q4.442 0 8.2701 1.6041 3.8575 1.6041 7.0429 4.783 3.1854 3.1789 4.7635 6.9995t1.5781 8.3118q0 4.4331-1.5781 8.2534-1.5781 3.7914-4.7635 6.9703-3.1854 3.1789-7.0429 4.783-3.8283 1.6041-8.2701 1.6041-4.442 0-8.2994-1.6041-3.8282-1.6041-7.0136-4.783-3.1854-3.1789-4.7636-6.9703-1.578-3.8205-1.578-8.2534 0-4.4913 1.578-8.3118 1.5782-3.8205 4.7636-6.9995 3.1854-3.1789 7.0136-4.783 3.8576-1.6041 8.2994-1.6041zm-0.7891 12.074h-3.5945v8.0496h3.5945q3.2147 0 4.4713-0.90414 1.2858-0.90414 1.2858-3.0915 0-2.2165-1.2858-3.1206-1.2859-0.93328-4.4713-0.93328zm0.2046-3.004q5.1434 0 7.6862 1.7498 2.5425 1.7207 2.5425 5.2496 0 2.5081-1.5489 4.1414-1.5196 1.6332-4.3252 2.129 0.7015 0.23332 1.6658 1.3707 0.9936 1.1083 2.3379 3.2373l4.0037 6.5037h-5.0265l-3.7699-6.0954q-1.7242-2.7998-2.8054-3.5289-1.0522-0.75829-2.6302-0.75829h-1.9288v10.382h-4.5297v-24.382zm-1151.5 209.06m214.3-0.075m208.61-1.0498c-23.995-4.1241-44.165-14.547-61.487-31.868-15.971-15.972-25.869-34.118-30.893-56.838-2.2495-9.8976-2.3996-33.818-0.37499-43.865 3.0744-15.146 10.048-31.418 18.671-43.641 5.8487-8.323 18.446-21.07 26.544-26.844 14.172-9.9725 30.368-16.722 47.54-19.646l31.48-0.74992c0.59987 0.14997 3.6742 0.67485 6.7486 1.1247 7.6486 1.1997 20.696 5.4739 28.869 9.3732 19.571 9.3732 38.242 26.844 49.115 45.815 10.947 19.121 16.347 43.641 14.322 65.086-2.5495 26.919-12.747 49.489-31.118 68.536-17.546 18.146-37.717 29.019-62.312 33.443zm-96.73-4.0491-34.268-0.22495c-32.093-0.29994-34.868-0.37489-42.441-1.9496-33.668-7.0485-57.888-24.37-71.385-51.139-16.272-32.318-16.196-75.507 0.22495-107.53 14.097-27.519 41.017-45.965 74.459-50.989 11.547-1.7246 10.723-1.7246 43.266-1.7996l30.143-0.15004v62.237h-20.021c-11.098 0-22.27 0.37488-24.969 0.82481-19.796 3.1494-33.818 15.297-37.942 32.618-1.7246 7.4983-1.1248 20.696 1.3497 27.294 4.649 12.597 14.172 21.445 27.744 25.795 8.698 2.6994 16.271 3.4493 36.367 3.4493h17.471v30.819zm-326.18-0.075v-213.7h161.96v62.237h-89.982v16.496h77.98v56.238h-77.98v17.246h89.982v61.487h-80.982zm561.63 0v-106.32c0-58.487 0.22498-106.62 0.52492-106.85 0.22495-0.29993 16.572-0.44987 36.142-0.37488l35.692 0.22495 0.22496 75.882 0.14993 75.957h38.242c21.071 0 38.242 0.29991 38.242 0.59985 0 0.29992-4.3491 14.022-9.748 30.443-5.3238 16.421-9.748 29.994-9.748 30.144 0 0.14998-29.169 0.29988-64.861 0.29988zm176.96 0c-21.445 0-38.991-0.22492-38.991-0.59983 0-0.29994 15.072-48.364 33.518-106.85l33.443-106.25h103.93l3.7492 11.773c14.172 44.69 63.062 200.73 63.062 201.26 0 0.37492-16.647 0.67486-38.991 0.67486h-38.916l-0.82491-3.2243c-0.52482-1.7246-2.1746-7.9485-3.8242-13.797-1.5747-5.9237-2.9244-10.873-2.9244-11.098 0-0.22495-14.997-0.37488-33.368-0.37488h-33.293l-1.1248 3.9741c-0.97465 3.3743-2.6244 9.7478-5.6988 21.296l-0.82476 3.2243zm203.95 0v-213.78l127.85 0.4499 7.2735 2.0245c29.019 7.9485 44.84 27.069 44.84 54.213 0 9.8976-1.6496 17.546-5.6238 25.57-3.4492 7.0485-11.472 14.847-19.271 18.596-4.649 2.3245-5.2488 2.7744-3.7491 3.1494 7.4985 2.0995 19.346 10.123 24.67 16.722 8.0982 10.123 11.098 20.32 10.498 35.542-0.3749 11.473-1.5747 16.346-5.8488 25.269-2.5494 5.2489-4.3489 7.5732-9.9724 13.122-5.6988 5.6988-7.9481 7.3484-13.947 10.348-3.8992 1.8746-9.673 4.1241-12.748 5.0239-13.347 3.6742-15.072 3.7492-81.508 3.7492zm-547.07-23.469c0.3006-0.0494 10.211-12.645 22.115-28.12l21.895-28.419 10.947-1.7996 31.268 17.397c17.171 9.523 31.419 17.171 31.643 17.021 0.14997-0.22495-11.622-9.598-26.244-20.845l-26.619-20.396 1.9495-2.7743c1.1248-1.4997 2.0996-2.7744 2.1746-2.9244 0.075-0.14996 13.347 7.0485 29.544 15.972 16.121 8.9979 29.469 16.122 29.694 15.896 0.22495-0.22495-12.297-10.123-27.744-21.97-25.869-19.946-28.119-21.821-28.194-23.92 0-1.2747-0.37496-3.5243-0.74988-5.0239-0.74984-2.6994-0.52489-3.2993 17.322-35.092 9.8982-17.846 17.921-32.468 17.771-32.618-0.14997-0.22495-9.673 11.847-21.145 26.694-11.547 14.847-21.145 27.069-21.37 27.219-0.22495 0.14997-1.6496-0.67485-3.2243-1.7996l-2.6995-1.9496 16.796-30.294c9.2234-16.647 16.721-30.368 16.572-30.518-0.14997-0.14997-10.198 12.672-22.27 28.493l-22.045 28.719-5.6987 0.89979-5.7738 0.8998-32.018-18.071c-17.621-9.9725-32.168-17.921-32.318-17.771-0.14937 0.14982 11.998 9.8227 26.995 21.52l27.294 21.221-1.9495 2.9244-1.8746 2.8494-2.3994-1.1998c-1.2747-0.67485-14.922-8.2481-30.293-16.872-15.447-8.6234-28.119-15.597-28.344-15.447-0.14997 0.22495 53.689 42.066 56.763 44.091 0.37493 0.22495 1.0497 2.9994 1.4996 6.1488l0.82491 5.6987-17.397 31.193c-9.5979 17.171-17.247 31.418-17.021 31.643 0.14998 0.22496 9.5229-11.623 20.696-26.244l20.395-26.619 2.9994 1.9496c1.9496 1.2747 2.8493 2.3246 2.5494 3.0744-0.22496 0.59987-7.6486 14.097-16.572 29.993-8.8481 15.821-15.971 29.019-15.747 29.169 1e-3 1e-3 3e-3 2e-3 5e-3 1e-3zm616.81-25.121 15.971-0.29987c14.172-0.22495 16.271-0.44993 19.346-1.8746 5.9237-2.6994 8.9231-8.1732 8.9231-16.272 0-8.4728-2.3994-13.122-8.5478-16.421-2.8494-1.4997-4.2741-1.6496-19.346-1.8745l-16.347-0.22496v18.446zm-193.83-33.893c17.921 0 19.196-0.075 18.821-1.3497-0.22488-0.67486-4.499-16.797-9.4478-35.767-5.0239-18.971-9.2234-34.568-9.2984-34.643-0.14997-0.14997-4.349 15.522-9.4478 34.867-5.0989 19.271-9.3727 35.467-9.5979 35.917-0.22496 0.74983 3.8991 0.97485 18.971 0.97485zm193.83-51.739h14.097c17.921-0.075 20.846-0.97478 24.22-7.6481 0.9748-1.9496 1.4248-4.3491 1.4248-7.8736 0-6.8985-2.0995-11.098-6.7486-13.722-3.2243-1.7996-4.0492-1.8746-18.146-2.0996l-14.847-0.29986v15.821z" fill="#0079c8" stroke="#0079c8" stroke-width=".31125"/>
</svg>
