<?xml version="1.0" encoding="UTF-8" standalone="no"?>
<svg
   width="100%"
   height="100%"
   viewBox="0 0 301 301"
   version="1.1"
   xml:space="preserve"
   style="fill-rule:evenodd;clip-rule:evenodd;stroke-linejoin:round;stroke-miterlimit:2;"
   id="svg3"
   sodipodi:docname="MinneHack 2025 Logo.svg"
   inkscape:version="1.4.2 (ebf0e940d0, 2025-05-08)"
   xmlns:inkscape="http://www.inkscape.org/namespaces/inkscape"
   xmlns:sodipodi="http://sodipodi.sourceforge.net/DTD/sodipodi-0.dtd"
   xmlns="http://www.w3.org/2000/svg"
   xmlns:svg="http://www.w3.org/2000/svg"
   xmlns:serif="http://www.serif.com/"><sodipodi:namedview
     id="namedview3"
     pagecolor="#505050"
     bordercolor="#eeeeee"
     borderopacity="1"
     inkscape:showpageshadow="0"
     inkscape:pageopacity="0"
     inkscape:pagecheckerboard="0"
     inkscape:deskcolor="#505050"
     inkscape:zoom="2.7437301"
     inkscape:cx="121.00316"
     inkscape:cy="161.8235"
     inkscape:window-width="3200"
     inkscape:window-height="2000"
     inkscape:window-x="0"
     inkscape:window-y="0"
     inkscape:window-maximized="0"
     inkscape:current-layer="path4499" /><rect
     id="Fartboard-Infinity-2"
     serif:id="Fartboard Infinity 2"
     x="0.15"
     y="0.624"
     width="300"
     height="300"
     style="fill:none;" /><clipPath
     id="_clip1"><rect
       x="0.15"
       y="0.624"
       width="300"
       height="300"
       id="rect1" /></clipPath><g
     clip-path="url(#_clip1)"
     id="g2"><rect
       x="0.15"
       y="1.624"
       width="300"
       height="300"
       style="fill:#fff;"
       id="rect2" /><g
       id="path4499"><path
         d="M189.105,48.227l-44.369,10.958l-40.333,88.829l-26.21,-72.374l-44.369,10.958l-14.179,160.667l36.002,-8.903l9.496,-107.562l21.287,63.027l26.358,-6.516l33.392,-76.095l-12.513,141.806l38.205,-9.44l6.238,-70.783l56.4,-13.938l-6.238,70.783l38.205,-9.44l14.178,-160.668l-38.204,9.441l-5.183,58.806l-56.4,13.938l5.183,-58.806l-0.019,-0l3.073,-34.688Z"
         style="fill:url(#_Linear2);fill-rule:nonzero;"
         id="path2" /></g></g><defs
     id="defs3"><linearGradient
       id="_Linear2"
       x1="0"
       y1="0"
       x2="1"
       y2="0"
       gradientUnits="userSpaceOnUse"
       gradientTransform="matrix(-159.801,-297.944,297.944,-159.801,260.686,371.253)"><stop
         offset="0"
         style="stop-color:#30d520;stop-opacity:1;"
         id="stop2" /><stop
         offset="1"
         style="stop-color:#5beeab;stop-opacity:1;"
         id="stop3" /></linearGradient></defs></svg>
