<svg width="1200" height="600" viewBox="0 0 1200 600" fill="none" xmlns="http://www.w3.org/2000/svg">
<path d="M254.109 378L226.501 361.791C213.535 371.013 197.976 375.974 182.015 375.974H139.586C139.593 375.933 141.25 366.859 143.165 361.285C145.064 355.755 149.295 347.617 149.299 347.608H195.825C212.766 347.608 226.501 334 226.501 317.215V273.147C226.501 273.147 233.847 264.658 239.283 259.977C244.666 255.341 254.067 249.366 254.109 249.34V378Z" fill="url(#paint0_linear_590_129)"/>
<path d="M140.608 239.209C153.573 229.987 169.132 225.026 185.093 225.026H227.523C227.516 225.065 225.859 234.141 223.944 239.716C222.044 245.249 217.809 253.392 217.809 253.392H171.284C154.342 253.392 140.608 267 140.608 283.785V327.853C140.608 327.853 133.262 336.342 127.826 341.023C122.442 345.659 113.041 351.634 113 351.66V223L140.608 239.209Z" fill="url(#paint1_linear_590_129)"/>
<path d="M342.199 345.121H324.958V266.438H362.502C366.132 266.438 369.421 267.039 372.37 268.241C375.319 269.444 377.815 271.172 379.856 273.427C381.974 275.606 383.6 278.236 384.734 281.318C385.868 284.399 386.435 287.818 386.435 291.576C386.435 296.912 385.225 301.571 382.806 305.554C380.461 309.537 376.87 312.43 372.03 314.234L387.57 345.121H368.4L354.562 316.263H342.199V345.121ZM360.347 301.834C362.918 301.834 364.922 301.195 366.359 299.918C367.871 298.565 368.627 296.611 368.627 294.056V289.096C368.627 286.541 367.871 284.624 366.359 283.347C364.922 281.994 362.918 281.318 360.347 281.318H342.199V301.834H360.347Z" fill="url(#paint2_linear_590_129)"/>
<path d="M437.912 335.201H437.345C436.815 336.704 436.097 338.132 435.189 339.485C434.358 340.838 433.261 342.04 431.9 343.092C430.539 344.144 428.913 344.971 427.023 345.572C425.208 346.173 423.091 346.474 420.671 346.474C414.546 346.474 409.895 344.482 406.719 340.499C403.619 336.441 402.069 330.655 402.069 323.139V285.939H418.856V321.674C418.856 325.281 419.499 328.062 420.784 330.016C422.07 331.97 424.263 332.947 427.363 332.947C428.649 332.947 429.934 332.759 431.219 332.383C432.505 332.007 433.639 331.481 434.622 330.805C435.605 330.053 436.399 329.152 437.004 328.099C437.609 327.047 437.912 325.807 437.912 324.379V285.939H454.699V345.121H437.912V335.201Z" fill="url(#paint3_linear_590_129)"/>
<path d="M472.587 345.121V285.939H489.374V295.972H490.055C491.113 292.891 492.966 290.223 495.613 287.969C498.259 285.714 501.927 284.587 506.615 284.587C512.74 284.587 517.353 286.616 520.453 290.674C523.629 294.732 525.217 300.519 525.217 308.034V345.121H508.43V309.387C508.43 305.554 507.825 302.736 506.615 300.932C505.405 299.053 503.25 298.114 500.15 298.114C498.788 298.114 497.465 298.302 496.18 298.678C494.894 298.978 493.722 299.504 492.663 300.256C491.68 301.007 490.886 301.947 490.281 303.074C489.676 304.126 489.374 305.366 489.374 306.794V345.121H472.587Z" fill="url(#paint4_linear_590_129)"/>
<path d="M592.105 345.121L586.434 326.409H560.006L554.334 345.121H536.866L562.955 266.438H584.279L610.027 345.121H592.105ZM573.39 281.994H572.823L564.089 311.867H582.237L573.39 281.994Z" fill="url(#paint5_linear_590_129)"/>
<path d="M622.342 345.121V285.939H639.129V295.972H639.81C640.868 292.891 642.721 290.223 645.367 287.969C648.014 285.714 651.682 284.587 656.37 284.587C662.495 284.587 667.108 286.616 670.208 290.674C673.384 294.732 674.972 300.519 674.972 308.034V345.121H658.185V309.387C658.185 305.554 657.58 302.736 656.37 300.932C655.16 299.053 653.005 298.114 649.905 298.114C648.543 298.114 647.22 298.302 645.935 298.678C644.649 298.978 643.477 299.504 642.418 300.256C641.435 301.007 640.641 301.947 640.036 303.074C639.431 304.126 639.129 305.366 639.129 306.794V345.121H622.342Z" fill="url(#paint6_linear_590_129)"/>
<path d="M727.703 285.939H743.356L720.444 354.252C718.932 358.836 716.776 362.218 713.979 364.398C711.256 366.577 707.324 367.667 702.182 367.667H691.747V354.703H702.976L705.018 348.165L684.147 285.939H700.821L709.555 313.558L713.865 330.692H714.546L718.969 313.558L727.703 285.939Z" fill="url(#paint7_linear_590_129)"/>
<path d="M748.481 285.939H764.701L770.486 309.838L774.569 327.874H775.023L779.787 309.838L786.592 285.939H801.905L808.824 309.838L813.701 327.874H814.155L818.239 309.838L824.023 285.939H839.563L823.116 345.121H805.535L798.275 320.096L794.079 304.765H793.738L789.655 320.096L782.396 345.121H765.155L748.481 285.939Z" fill="url(#paint8_linear_590_129)"/>
<path d="M851.793 261.703H868.58V295.972H869.26C870.319 292.891 872.172 290.223 874.818 287.969C877.465 285.714 881.133 284.587 885.821 284.587C891.946 284.587 896.559 286.616 899.659 290.674C902.835 294.732 904.423 300.519 904.423 308.034V345.121H887.636V309.387C887.636 305.554 887.031 302.736 885.821 300.932C884.611 299.053 882.456 298.114 879.355 298.114C877.994 298.114 876.671 298.302 875.386 298.678C874.1 298.978 872.928 299.504 871.869 300.256C870.886 301.007 870.092 301.947 869.487 303.074C868.882 304.126 868.58 305.366 868.58 306.794V345.121H851.793V261.703Z" fill="url(#paint9_linear_590_129)"/>
<path d="M946.471 346.474C941.934 346.474 937.888 345.76 934.334 344.332C930.78 342.829 927.755 340.762 925.26 338.132C922.84 335.427 920.987 332.158 919.702 328.325C918.492 324.492 917.887 320.209 917.887 315.474C917.887 310.815 918.492 306.606 919.702 302.848C920.912 299.016 922.689 295.747 925.033 293.041C927.453 290.336 930.402 288.269 933.88 286.841C937.359 285.338 941.329 284.587 945.79 284.587C950.705 284.587 954.902 285.413 958.381 287.067C961.935 288.72 964.808 290.937 967.001 293.718C969.27 296.498 970.895 299.73 971.878 303.412C972.937 307.019 973.466 310.815 973.466 314.798V319.758H935.241V320.659C935.241 324.567 936.3 327.686 938.417 330.016C940.535 332.27 943.862 333.398 948.399 333.398C951.877 333.398 954.713 332.721 956.906 331.369C959.099 329.941 961.141 328.25 963.031 326.296L971.425 336.667C968.778 339.748 965.3 342.153 960.989 343.881C956.755 345.61 951.915 346.474 946.471 346.474ZM946.13 296.874C942.728 296.874 940.043 298.001 938.077 300.256C936.187 302.435 935.241 305.366 935.241 309.049V309.95H956.112V308.936C956.112 305.329 955.28 302.435 953.617 300.256C952.029 298.001 949.533 296.874 946.13 296.874Z" fill="url(#paint10_linear_590_129)"/>
<path d="M987.591 345.121V285.939H1004.38V298.79H1004.95C1005.25 297.137 1005.78 295.559 1006.53 294.056C1007.29 292.478 1008.27 291.087 1009.48 289.885C1010.77 288.682 1012.28 287.743 1014.02 287.067C1015.76 286.315 1017.8 285.939 1020.14 285.939H1023.09V301.496H1018.9C1013.98 301.496 1010.31 302.135 1007.89 303.412C1005.55 304.69 1004.38 307.057 1004.38 310.514V345.121H987.591Z" fill="url(#paint11_linear_590_129)"/>
<path d="M1060 346.474C1055.47 346.474 1051.42 345.76 1047.87 344.332C1044.31 342.829 1041.29 340.762 1038.79 338.132C1036.37 335.427 1034.52 332.158 1033.24 328.325C1032.03 324.492 1031.42 320.209 1031.42 315.474C1031.42 310.815 1032.03 306.606 1033.24 302.848C1034.45 299.016 1036.22 295.747 1038.57 293.041C1040.99 290.336 1043.94 288.269 1047.41 286.841C1050.89 285.338 1054.86 284.587 1059.32 284.587C1064.24 284.587 1068.44 285.413 1071.91 287.067C1075.47 288.72 1078.34 290.937 1080.53 293.718C1082.8 296.498 1084.43 299.73 1085.41 303.412C1086.47 307.019 1087 310.815 1087 314.798V319.758H1048.78V320.659C1048.78 324.567 1049.83 327.686 1051.95 330.016C1054.07 332.27 1057.4 333.398 1061.93 333.398C1065.41 333.398 1068.25 332.721 1070.44 331.369C1072.63 329.941 1074.67 328.25 1076.56 326.296L1084.96 336.667C1082.31 339.748 1078.83 342.153 1074.52 343.881C1070.29 345.61 1065.45 346.474 1060 346.474ZM1059.66 296.874C1056.26 296.874 1053.58 298.001 1051.61 300.256C1049.72 302.435 1048.78 305.366 1048.78 309.049V309.95H1069.65V308.936C1069.65 305.329 1068.81 302.435 1067.15 300.256C1065.56 298.001 1063.07 296.874 1059.66 296.874Z" fill="url(#paint12_linear_590_129)"/>
<defs>
<linearGradient id="paint0_linear_590_129" x1="113" y1="223" x2="161.114" y2="525.343" gradientUnits="userSpaceOnUse">
<stop stop-color="#FF6900"/>
<stop offset="1" stop-color="#FB2C36"/>
</linearGradient>
<linearGradient id="paint1_linear_590_129" x1="113" y1="223" x2="161.114" y2="525.343" gradientUnits="userSpaceOnUse">
<stop stop-color="#FF6900"/>
<stop offset="1" stop-color="#FB2C36"/>
</linearGradient>
<linearGradient id="paint2_linear_590_129" x1="113" y1="223" x2="161.114" y2="525.343" gradientUnits="userSpaceOnUse">
<stop stop-color="#FF6900"/>
<stop offset="1" stop-color="#FB2C36"/>
</linearGradient>
<linearGradient id="paint3_linear_590_129" x1="113" y1="223" x2="161.114" y2="525.343" gradientUnits="userSpaceOnUse">
<stop stop-color="#FF6900"/>
<stop offset="1" stop-color="#FB2C36"/>
</linearGradient>
<linearGradient id="paint4_linear_590_129" x1="113" y1="223" x2="161.114" y2="525.343" gradientUnits="userSpaceOnUse">
<stop stop-color="#FF6900"/>
<stop offset="1" stop-color="#FB2C36"/>
</linearGradient>
<linearGradient id="paint5_linear_590_129" x1="113" y1="223" x2="161.114" y2="525.343" gradientUnits="userSpaceOnUse">
<stop stop-color="#FF6900"/>
<stop offset="1" stop-color="#FB2C36"/>
</linearGradient>
<linearGradient id="paint6_linear_590_129" x1="113" y1="223" x2="161.114" y2="525.343" gradientUnits="userSpaceOnUse">
<stop stop-color="#FF6900"/>
<stop offset="1" stop-color="#FB2C36"/>
</linearGradient>
<linearGradient id="paint7_linear_590_129" x1="113" y1="223" x2="161.114" y2="525.343" gradientUnits="userSpaceOnUse">
<stop stop-color="#FF6900"/>
<stop offset="1" stop-color="#FB2C36"/>
</linearGradient>
<linearGradient id="paint8_linear_590_129" x1="113" y1="223" x2="161.114" y2="525.343" gradientUnits="userSpaceOnUse">
<stop stop-color="#FF6900"/>
<stop offset="1" stop-color="#FB2C36"/>
</linearGradient>
<linearGradient id="paint9_linear_590_129" x1="113" y1="223" x2="161.114" y2="525.343" gradientUnits="userSpaceOnUse">
<stop stop-color="#FF6900"/>
<stop offset="1" stop-color="#FB2C36"/>
</linearGradient>
<linearGradient id="paint10_linear_590_129" x1="113" y1="223" x2="161.114" y2="525.343" gradientUnits="userSpaceOnUse">
<stop stop-color="#FF6900"/>
<stop offset="1" stop-color="#FB2C36"/>
</linearGradient>
<linearGradient id="paint11_linear_590_129" x1="113" y1="223" x2="161.114" y2="525.343" gradientUnits="userSpaceOnUse">
<stop stop-color="#FF6900"/>
<stop offset="1" stop-color="#FB2C36"/>
</linearGradient>
<linearGradient id="paint12_linear_590_129" x1="113" y1="223" x2="161.114" y2="525.343" gradientUnits="userSpaceOnUse">
<stop stop-color="#FF6900"/>
<stop offset="1" stop-color="#FB2C36"/>
</linearGradient>
</defs>
</svg>
